<svg xmlns="http://www.w3.org/2000/svg" xmlns:xlink="http://www.w3.org/1999/xlink" width="1640" height="819.85"><rect width="1640" height="819.85" rx="5" ry="5" class="a"/><svg y="0%" x="0%"><circle cx="20" cy="20" r="6" fill="#ff5f58"/><circle cx="40" cy="20" r="6" fill="#ffbd2e"/><circle cx="60" cy="20" r="6" fill="#18c132"/></svg><svg height="759.85" viewBox="0 0 160 75.985" width="1600" x="15" xmlns="http://www.w3.org/2000/svg" xmlns:xlink="http://www.w3.org/1999/xlink" y="50"><style>@keyframes s{0%{transform:translateX(0)}1.2%{transform:translateX(-1760px)}1.3%{transform:translateX(-3040px)}1.4%{transform:translateX(-3360px)}5.2%{transform:translateX(-3680px)}5.5%{transform:translateX(-3840px)}5.7%{transform:translateX(-4320px)}17.5%{transform:translateX(-4480px)}17.6%{transform:translateX(-4640px)}18.8%{transform:translateX(-4800px)}21.6%{transform:translateX(-5120px)}27.3%{transform:translateX(-5440px)}32.5%{transform:translateX(-6080px)}34.7%{transform:translateX(-6240px)}35.4%{transform:translateX(-6400px)}38.6%{transform:translateX(-6880px)}39.2%{transform:translateX(-7040px)}to{transform:translateX(-7200px)}}.a{fill:#1e1d40}.f,.g{white-space:pre}.f{fill:#ffe700;font-weight:700}.g{fill:#fff}.i{font-weight:700}.i,.j,.l,.m,.n{fill:#3ad900;white-space:pre}.l,.m,.n{fill:#d90429}.m,.n{fill:#00c5c7}.n{fill:#ffe700}.o{fill:#c7c7c7}.o,.p,.u{white-space:pre}.p{fill:#6943ff;font-weight:700}.u{fill:#669}</style><g font-family="Monaco,Consolas,Menlo,'Bitstream Vera Sans Mono','Powerline Symbols',monospace" font-size="1.67"><defs><symbol id="1"><text y="1.67" class="f">demartini</text><text x="10.02" y="1.67" class="g">in</text><text x="13.026" y="1.67" style="white-space:pre" fill="#00c5c7" font-weight="700">~</text><text x="15.03" y="1.67" class="g">at</text><text x="18.036" y="1.67" class="f">02:20:16</text></symbol><symbol id="2"><text y="1.67" class="i">❯</text><text x="2.004" y="1.67" class="j">ssh</text><text x="6.012" y="1.67" style="white-space:pre" fill="#a0a0c5">demartini@raspberry.local</text></symbol><symbol id="3"><text x="7.014" y="1.67" class="j">.~~.</text><text x="14.028" y="1.67" class="j">.~~.</text></symbol><symbol id="4"><text x="6.012" y="1.67" class="j">&apos;.</text><text x="9.018" y="1.67" class="j">\</text><text x="11.022" y="1.67" class="j">&apos;</text><text x="13.026" y="1.67" class="j">&apos;</text><text x="15.03" y="1.67" class="j">/</text><text x="17.034" y="1.67" class="j">.&apos;</text></symbol><symbol id="5"><text x="7.014" y="1.67" class="l">.~</text><text x="10.02" y="1.67" class="l">.~~~..~.</text><text x="42.084" y="1.67" class="l">_</text><text x="69.138" y="1.67" class="l">_</text></symbol><symbol id="6"><text x="6.012" y="1.67" class="l">:</text><text x="8.016" y="1.67" class="l">.~.&apos;~&apos;.~.</text><text x="18.036" y="1.67" class="l">:</text><text x="26.052" y="1.67" class="l">___</text><text x="30.06" y="1.67" class="l">___</text><text x="34.068" y="1.67" class="l">___</text><text x="38.076" y="1.67" class="l">___|</text><text x="43.086" y="1.67" class="l">|_</text><text x="46.092" y="1.67" class="l">___</text><text x="50.1" y="1.67" class="l">___</text><text x="54.108" y="1.67" class="l">___</text><text x="58.116" y="1.67" class="l">_</text><text x="60.12" y="1.67" class="l">_</text><text x="65.13" y="1.67" class="l">___|_|</text></symbol><symbol id="7"><text x="5.01" y="1.67" class="l">~</text><text x="7.014" y="1.67" class="l">(</text><text x="11.022" y="1.67" class="l">)</text><text x="13.026" y="1.67" class="l">(</text><text x="17.034" y="1.67" class="l">)</text><text x="19.038" y="1.67" class="l">~</text><text x="25.05" y="1.67" class="l">|</text><text x="28.056" y="1.67" class="l">_|</text><text x="31.062" y="1.67" class="l">.&apos;|_</text><text x="36.072" y="1.67" class="l">-|</text><text x="39.078" y="1.67" class="l">.</text><text x="41.082" y="1.67" class="l">|</text><text x="43.086" y="1.67" class="l">.</text><text x="45.09" y="1.67" class="l">|</text><text x="47.094" y="1.67" class="l">-_|</text><text x="52.104" y="1.67" class="l">_|</text><text x="56.112" y="1.67" class="l">_|</text><text x="59.118" y="1.67" class="l">|</text><text x="61.122" y="1.67" class="l">|</text><text x="64.128" y="1.67" class="l">|</text><text x="66.132" y="1.67" class="l">.</text><text x="68.136" y="1.67" class="l">|</text><text x="70.14" y="1.67" class="l">|</text></symbol><symbol id="8"><text x="4.008" y="1.67" class="l">(</text><text x="6.012" y="1.67" class="l">:</text><text x="8.016" y="1.67" class="l">&apos;~&apos;.~.&apos;~&apos;</text><text x="18.036" y="1.67" class="l">:</text><text x="20.04" y="1.67" class="l">)</text><text x="25.05" y="1.67" class="l">|_|</text><text x="29.058" y="1.67" class="l">|__,|___|</text><text x="40.08" y="1.67" class="l">_|___|___|_|</text><text x="53.106" y="1.67" class="l">|_|</text><text x="57.114" y="1.67" class="l">|_</text><text x="61.122" y="1.67" class="l">|</text><text x="64.128" y="1.67" class="l">|</text><text x="67.134" y="1.67" class="l">_|_|</text></symbol><symbol id="9"><text x="5.01" y="1.67" class="l">~</text><text x="7.014" y="1.67" class="l">.~</text><text x="10.02" y="1.67" class="l">(</text><text x="14.028" y="1.67" class="l">)</text><text x="16.032" y="1.67" class="l">~.</text><text x="19.038" y="1.67" class="l">~</text><text x="37.074" y="1.67" class="l">|_|</text><text x="57.114" y="1.67" class="l">|___|</text><text x="64.128" y="1.67" class="l">|_|</text></symbol><symbol id="10"><text x="6.012" y="1.67" class="l">(</text><text x="9.018" y="1.67" class="l">:</text><text x="11.022" y="1.67" class="l">&apos;~&apos;</text><text x="15.03" y="1.67" class="l">:</text><text x="18.036" y="1.67" class="l">)</text></symbol><symbol id="11"><text x="7.014" y="1.67" class="l">&apos;~</text><text x="10.02" y="1.67" class="l">.~~~.</text><text x="16.032" y="1.67" class="l">~&apos;</text></symbol><symbol id="12"><text x="11.022" y="1.67" class="l">&apos;~&apos;</text></symbol><symbol id="13"><text x="4.008" y="1.67" class="m">Welcome</text><text x="12.024" y="1.67" class="m">back,</text><text x="18.036" y="1.67" class="m">demartini!</text></symbol><symbol id="14"><text x="4.008" y="1.67" class="m">Saturday,</text><text x="14.028" y="1.67" class="m">18</text><text x="17.034" y="1.67" class="m">July</text><text x="22.044" y="1.67" class="m">2020,</text><text x="28.056" y="1.67" class="m">02:20:20</text></symbol><symbol id="15"><text x="4.008" y="1.67" class="n">Uptime.............:</text><text x="25.05" y="1.67" class="o">2</text><text x="27.054" y="1.67" class="o">days,</text><text x="34.068" y="1.67" class="o">6</text><text x="36.072" y="1.67" class="o">hours,</text><text x="43.086" y="1.67" class="o">55</text><text x="46.092" y="1.67" class="o">minutes</text><text x="54.108" y="1.67" class="o">(2020/07/15</text><text x="66.132" y="1.67" class="o">19:25:09)</text></symbol><symbol id="16"><text x="4.008" y="1.67" class="n">Last</text><text x="9.018" y="1.67" class="n">Login.........:</text><text x="25.05" y="1.67" class="o">18</text><text x="28.056" y="1.67" class="o">Jul</text><text x="32.064" y="1.67" class="o">2020</text><text x="37.074" y="1.67" class="o">02:19:14</text><text x="46.092" y="1.67" class="o">from</text><text x="51.102" y="1.67" class="o">fe80::10d8:d5b9:</text></symbol><symbol id="17"><text x="4.008" y="1.67" class="n">Logged</text><text x="11.022" y="1.67" class="n">Users.......:</text><text x="25.05" y="1.67" class="o">1</text><text x="27.054" y="1.67" class="o">users</text><text x="33.066" y="1.67" class="o">logged</text><text x="40.08" y="1.67" class="o">in.</text></symbol><symbol id="18"><text x="4.008" y="1.67" class="n">Running</text><text x="12.024" y="1.67" class="n">Processes..:</text><text x="25.05" y="1.67" class="o">102</text></symbol><symbol id="19"><text x="4.008" y="1.67" class="n">Load</text><text x="9.018" y="1.67" class="n">Average.......:</text><text x="25.05" y="1.67" class="o">0.04</text><text x="30.06" y="1.67" class="o">(1min)</text><text x="37.074" y="1.67" class="o">0.03</text><text x="42.084" y="1.67" class="o">(5min)</text><text x="49.098" y="1.67" class="o">0.01</text><text x="54.108" y="1.67" class="o">(15min)</text></symbol><symbol id="20"><text x="4.008" y="1.67" class="n">Memory.............:</text><text x="25.05" y="1.67" class="o">Total:</text><text x="32.064" y="1.67" class="o">976MB,</text><text x="39.078" y="1.67" class="o">Used:</text><text x="45.09" y="1.67" class="o">38MB,</text><text x="51.102" y="1.67" class="o">Free:</text><text x="57.114" y="1.67" class="o">797MB</text></symbol><symbol id="21"><text x="4.008" y="1.67" class="n">Disk</text><text x="9.018" y="1.67" class="n">Space.........:</text><text x="25.05" y="1.67" class="o">Total:</text><text x="32.064" y="1.67" class="o">15GB,</text><text x="38.076" y="1.67" class="o">Used:</text><text x="44.088" y="1.67" class="o">1.8GB,</text><text x="51.102" y="1.67" class="o">Free:</text><text x="57.114" y="1.67" class="o">12GB</text></symbol><symbol id="22"><text x="4.008" y="1.67" class="n">Temperature........:</text><text x="25.05" y="1.67" class="o">48.3°C</text></symbol><symbol id="23"><text x="4.008" y="1.67" class="n">Hostname...........:</text><text x="25.05" y="1.67" class="o">raspberry</text></symbol><symbol id="24"><text x="4.008" y="1.67" class="n">LAN</text><text x="8.016" y="1.67" class="n">IP.............:</text><text x="25.05" y="1.67" class="o">192.168.0.5</text></symbol><symbol id="25"><text x="4.008" y="1.67" class="n">WAN</text><text x="8.016" y="1.67" class="n">IP.............:</text><text x="25.05" y="1.67" class="o">XXX.XXX.XXX.XXX</text></symbol><symbol id="26"><text x="4.008" y="1.67" class="n">DNS</text><text x="8.016" y="1.67" class="n">Servers........:</text><text x="25.05" y="1.67" class="o">1.1.1.1</text><text x="33.066" y="1.67" class="o">1.0.0.1</text></symbol><symbol id="27"><text y="1.67" class="i">demartini@raspberry</text><text x="19.038" y="1.67" class="g">:</text><text x="20.04" y="1.67" class="p">~</text><text x="22.044" y="1.67" class="p">$</text></symbol><symbol id="a"><path fill="transparent" d="M0 0h160v36H0z"/></symbol><symbol id="b"><path fill="#fad000" d="M0 0h1.102v2.171H0z"/></symbol></defs><path class="a" d="M0 0h160v75.985H0z"/><g style="animation-duration:14.568605s;animation-iteration-count:infinite;animation-name:s;animation-timing-function:steps(1,end)"><svg width="7360"><svg><use xlink:href="#a"/><use xlink:href="#b" x="-.004"/></svg><svg x="160"><use xlink:href="#a"/><use xlink:href="#b" x="-.004"/></svg><svg x="320"><use xlink:href="#a"/><use xlink:href="#b" x="-.004"/></svg><svg x="480"><use xlink:href="#a"/><use xlink:href="#b" x="-.004"/></svg><svg x="640"><use xlink:href="#a"/><use xlink:href="#b" x="-.004"/></svg><svg x="800"><use xlink:href="#a"/><use xlink:href="#b" x="-.004"/></svg><svg x="960"><use xlink:href="#a"/><use xlink:href="#b" x="-.004"/></svg><svg x="1120"><use xlink:href="#a"/><use xlink:href="#b" x="-.004"/></svg><svg x="1280"><use xlink:href="#a"/><use xlink:href="#b" x="-.004"/></svg><svg x="1440"><use xlink:href="#a"/><use xlink:href="#b" x="-.004"/></svg><svg x="1600"><use xlink:href="#a"/><use xlink:href="#b" x="-.004"/></svg><svg x="1760"><use xlink:href="#a"/><use xlink:href="#b" x="-.004"/></svg><svg x="1920"><use xlink:href="#a"/><use xlink:href="#b" x="-.004"/></svg><svg x="2080"><use xlink:href="#a"/><use xlink:href="#b" x="-.004"/></svg><svg x="2240"><use xlink:href="#a"/><use xlink:href="#b" x="-.004"/></svg><svg x="2400"><use xlink:href="#a"/><use xlink:href="#b" x="-.004"/></svg><svg x="2560"><use xlink:href="#a"/><use xlink:href="#b" x="-.004"/></svg><svg x="2720"><use xlink:href="#a"/><use xlink:href="#b" x="-.004"/></svg><svg x="2880"><use xlink:href="#a"/><use xlink:href="#b" x="-.004"/></svg><svg x="3040"><use xlink:href="#a"/><use xlink:href="#b" x="-.004"/></svg><svg x="3200"><use xlink:href="#a"/><use xlink:href="#b" x="-.004"/></svg><svg x="3360"><use xlink:href="#a"/><use xlink:href="#b" x="-.004"/></svg><svg x="3520"><use xlink:href="#a"/><use xlink:href="#b" x="-.004"/></svg><svg x="3680"><use xlink:href="#a"/><use xlink:href="#b" x="-.004"/></svg><svg x="3840"><use xlink:href="#a"/><use xlink:href="#b" x="-.004"/></svg><svg x="4000"><use xlink:href="#a"/><use xlink:href="#b" x="-.004"/></svg><svg x="4160"><use xlink:href="#a"/><use xlink:href="#b" x="-.004"/></svg><svg x="4320"><use xlink:href="#a"/><use xlink:href="#b" x="1.996" y="2.146"/><use xlink:href="#1"/><text y="3.841" class="i">❯</text></svg><svg x="4480"><use xlink:href="#a"/><use xlink:href="#b" x="2.996" y="2.146"/><use xlink:href="#1"/><text y="3.841" class="i">❯</text><text x="2.004" y="3.841" class="g">s</text></svg><svg x="4640"><use xlink:href="#a"/><use xlink:href="#b" x="2.996" y="2.146"/><use xlink:href="#1"/><text y="3.841" class="i">❯</text><text x="2.004" y="3.841" class="l">s</text><text x="3.006" y="3.841" class="u">sh</text><text x="6.012" y="3.841" class="u">demartini@raspberry.local</text></svg><svg x="4800"><use xlink:href="#a"/><use xlink:href="#b" x="3.996" y="2.146"/><use xlink:href="#1"/><text y="3.841" class="i">❯</text><text x="2.004" y="3.841" class="l">ss</text><text x="4.008" y="3.841" class="u">h</text><text x="6.012" y="3.841" class="u">demartini@raspberry.local</text></svg><svg x="4960"><use xlink:href="#a"/><use xlink:href="#b" x="4.996" y="2.146"/><use xlink:href="#1"/><text y="3.841" class="i">❯</text><text x="2.004" y="3.841" class="l">ssh</text><text x="6.012" y="3.841" class="u">demartini@raspberry.local</text></svg><svg x="5120"><use xlink:href="#a"/><use xlink:href="#b" x="4.996" y="2.146"/><use xlink:href="#1"/><text y="3.841" class="i">❯</text><text x="2.004" y="3.841" class="j">ssh</text><text x="6.012" y="3.841" class="u">demartini@raspberry.local</text></svg><svg x="5280"><use xlink:href="#a"/><use xlink:href="#b" x="30.996" y="2.146"/><use xlink:href="#1"/><text y="3.841" class="i">❯</text><text x="2.004" y="3.841" class="j">ssh</text><text x="6.012" y="3.841" class="j">demartini@raspberry.local</text></svg><svg x="5440"><use xlink:href="#a"/><use xlink:href="#b" x="30.996" y="2.146"/><use xlink:href="#1"/><use xlink:href="#2" y="2.171"/></svg><svg x="5600"><use xlink:href="#a"/><use xlink:href="#b" x="-.004" y="4.317"/><use xlink:href="#1"/><use xlink:href="#2" y="2.171"/></svg><svg x="5760"><use xlink:href="#a"/><use xlink:href="#b" x="-.004" y="4.317"/><use xlink:href="#1"/><use xlink:href="#2" y="2.171"/></svg><svg x="5920"><use xlink:href="#a"/><use xlink:href="#b" x="-.004" y="4.317"/><use xlink:href="#1"/><use xlink:href="#2" y="2.171"/></svg><svg x="6080"><use xlink:href="#a"/><use xlink:href="#b" x="-.004" y="4.317"/><use xlink:href="#1"/><use xlink:href="#2" y="2.171"/></svg><svg x="6240"><use xlink:href="#a"/><use xlink:href="#b" x="-.004" y="6.488"/><use xlink:href="#1"/><use xlink:href="#2" y="2.171"/><text y="6.012" class="g">Linux</text><text x="6.012" y="6.012" class="g">raspberry</text><text x="16.032" y="6.012" class="g">5.4.50-v7+</text><text x="27.054" y="6.012" class="g">#1324</text><text x="33.066" y="6.012" class="g">SMP</text><text x="37.074" y="6.012" class="g">Wed</text><text x="41.082" y="6.012" class="g">Jul</text><text x="45.09" y="6.012" class="g">1</text><text x="47.094" y="6.012" class="g">17:00:22</text><text x="56.112" y="6.012" class="g">BST</text><text x="60.12" y="6.012" class="g">2020</text><text x="65.13" y="6.012" class="g">armv7l</text></svg><svg x="6400"><use xlink:href="#a"/><use xlink:href="#b" x="-.004"/></svg><svg x="6560"><use xlink:href="#a"/><use xlink:href="#b" x="23.996" y="39.053"/><use xlink:href="#3" y="4.342"/><use xlink:href="#4" y="6.513"/><use xlink:href="#5" y="8.684"/><use xlink:href="#6" y="10.855"/><use xlink:href="#7" y="13.026"/><use xlink:href="#8" y="15.197"/><use xlink:href="#9" y="17.368"/><use xlink:href="#10" y="19.539"/><use xlink:href="#11" y="21.71"/><use xlink:href="#12" y="23.881"/><use xlink:href="#13" y="30.394"/><use xlink:href="#14" y="32.565"/><use xlink:href="#15" y="36.907"/><text x="4.008" y="40.748" class="n">Last</text><text x="9.018" y="40.748" class="n">Login.........:</text></svg><svg x="6720"><use xlink:href="#a"/><use xlink:href="#b" x="-.004" y="62.934"/><use xlink:href="#3" y="4.342"/><use xlink:href="#4" y="6.513"/><use xlink:href="#5" y="8.684"/><use xlink:href="#6" y="10.855"/><use xlink:href="#7" y="13.026"/><use xlink:href="#8" y="15.197"/><use xlink:href="#9" y="17.368"/><use xlink:href="#10" y="19.539"/><use xlink:href="#11" y="21.71"/><use xlink:href="#12" y="23.881"/><use xlink:href="#13" y="30.394"/><use xlink:href="#14" y="32.565"/><use xlink:href="#15" y="36.907"/><use xlink:href="#16" y="39.078"/><use xlink:href="#17" y="41.249"/><use xlink:href="#18" y="45.591"/><use xlink:href="#19" y="47.762"/><use xlink:href="#20" y="49.933"/><use xlink:href="#21" y="52.104"/><use xlink:href="#22" y="54.275"/><use xlink:href="#23" y="58.617"/><use xlink:href="#24" y="60.788"/></svg><svg x="6880"><use xlink:href="#a"/><use xlink:href="#b" x="-.004" y="71.618"/><use xlink:href="#3" y="4.342"/><use xlink:href="#4" y="6.513"/><use xlink:href="#5" y="8.684"/><use xlink:href="#6" y="10.855"/><use xlink:href="#7" y="13.026"/><use xlink:href="#8" y="15.197"/><use xlink:href="#9" y="17.368"/><use xlink:href="#10" y="19.539"/><use xlink:href="#11" y="21.71"/><use xlink:href="#12" y="23.881"/><use xlink:href="#13" y="30.394"/><use xlink:href="#14" y="32.565"/><use xlink:href="#15" y="36.907"/><use xlink:href="#16" y="39.078"/><use xlink:href="#17" y="41.249"/><use xlink:href="#18" y="45.591"/><use xlink:href="#19" y="47.762"/><use xlink:href="#20" y="49.933"/><use xlink:href="#21" y="52.104"/><use xlink:href="#22" y="54.275"/><use xlink:href="#23" y="58.617"/><use xlink:href="#24" y="60.788"/><use xlink:href="#25" y="62.959"/><use xlink:href="#26" y="65.13"/></svg><svg x="7040"><use xlink:href="#a"/><use xlink:href="#b" x="23.996" y="71.618"/><use xlink:href="#3" y="4.342"/><use xlink:href="#4" y="6.513"/><use xlink:href="#5" y="8.684"/><use xlink:href="#6" y="10.855"/><use xlink:href="#7" y="13.026"/><use xlink:href="#8" y="15.197"/><use xlink:href="#9" y="17.368"/><use xlink:href="#10" y="19.539"/><use xlink:href="#11" y="21.71"/><use xlink:href="#12" y="23.881"/><use xlink:href="#13" y="30.394"/><use xlink:href="#14" y="32.565"/><use xlink:href="#15" y="36.907"/><use xlink:href="#16" y="39.078"/><use xlink:href="#17" y="41.249"/><use xlink:href="#18" y="45.591"/><use xlink:href="#19" y="47.762"/><use xlink:href="#20" y="49.933"/><use xlink:href="#21" y="52.104"/><use xlink:href="#22" y="54.275"/><use xlink:href="#23" y="58.617"/><use xlink:href="#24" y="60.788"/><use xlink:href="#25" y="62.959"/><use xlink:href="#26" y="65.13"/><use xlink:href="#27" y="71.643"/></svg><svg x="7200"><use xlink:href="#a"/><use xlink:href="#b" x="23.996" y="71.618"/><use xlink:href="#3" y="4.342"/><use xlink:href="#4" y="6.513"/><use xlink:href="#5" y="8.684"/><use xlink:href="#6" y="10.855"/><use xlink:href="#7" y="13.026"/><use xlink:href="#8" y="15.197"/><use xlink:href="#9" y="17.368"/><use xlink:href="#10" y="19.539"/><use xlink:href="#11" y="21.71"/><use xlink:href="#12" y="23.881"/><use xlink:href="#13" y="30.394"/><use xlink:href="#14" y="32.565"/><use xlink:href="#15" y="36.907"/><use xlink:href="#16" y="39.078"/><use xlink:href="#17" y="41.249"/><use xlink:href="#18" y="45.591"/><use xlink:href="#19" y="47.762"/><use xlink:href="#20" y="49.933"/><use xlink:href="#21" y="52.104"/><use xlink:href="#22" y="54.275"/><use xlink:href="#23" y="58.617"/><use xlink:href="#24" y="60.788"/><use xlink:href="#25" y="62.959"/><use xlink:href="#26" y="65.13"/><use xlink:href="#27" y="71.643"/></svg></svg></g></g></svg></svg>